# xmcd CD database file
#
# Track frame offsets:
#	150
#	18954
#	37472
#	51970
#	65588
#	85119
#	98905
#	117585
#	130731
#	143324
#	161963
#	177934
#
# Disc length: 2662 seconds
#
# Revision: 1
# Processed by: cddbd v1.5PL3 Copyright (c) Steve Scherf et al.
# Submitted via: CDex 1.51
#
DISCID=a70a640c
DTITLE=keziah jones - Blufunk is a fact
DYEAR=1993
DGENRE=Blues
TTITLE0=The wisdom behind the smile (Ca$h)
TTITLE1=Walkin' naked thru a bluebell field
TTITLE2=Rhythm is love
TTITLE3=Runaway (Slavery days are over)
TTITLE4=Where's life?
TTITLE5=# The funderlying undermentals
TTITLE6=Frinigro interstellar
TTITLE7=Free your soul
TTITLE8=A curious kind of subconcious
TTITLE9=The waxing and the waning
TTITLE10=The invisible ladder
TTITLE11=Pleasure is kisses within
EXTD=YEAR: 1993
EXTT0=
EXTT1=
EXTT2=
EXTT3=
EXTT4=
EXTT5=
EXTT6=
EXTT7=
EXTT8=
EXTT9=
EXTT10=
EXTT11=
PLAYORDER=
